<svg xmlns="http://www.w3.org/2000/svg" viewBox="0 0 994 1121"><g id="Layer_4" data-name="Layer 4"><path d="M259.57,548.92v44.69l24.17-11.17C275.82,571.26,262.82,553.39,259.57,548.92Z"/><path d="M754.34,548.92v44.69l24.17-11.17C770.59,571.26,757.59,553.39,754.34,548.92Z"/><path d="M439.32,548.92v44.69l24.17-11.17C455.57,571.26,442.57,553.39,439.32,548.92Z"/><path d="M649.54,611.48c6.09,4.47,20.31,14.63,23.76,17.26V565.37c-6.3-4.47-20.31-14.21-23.76-16.45Z"/><path d="M159.64,513.17v103a74.88,74.88,0,0,1,16,8.33c16.25-14,22.95-25.8,22.95-52.2C198.63,549.74,193.55,526.17,159.64,513.17Z"/><path d="M119.62,606.81c10,1.42,22.75,3.65,34.74,7.51v-103a139.84,139.84,0,0,0-24.78-5.69C111.09,533.28,164.51,585.48,119.62,606.81Z"/><path d="M429.48,42.59H47.79L46.61,1078c0-.43,341.34.38,382.87.38,286,0,517.91-231.88,517.91-517.91S715.51,42.59,429.48,42.59ZM159.64,640.32v9.35l-5.28,2.23V639.71c-14.43-8.53-40.63-14.42-65.61-18.28H89c58.91-28-17.67-77.59,28.44-109.47l9.75-6.71a304.07,304.07,0,0,0-41-2.43l36.76-17.47a211.63,211.63,0,0,1,31.69,2.23V471.33l5.08-2.23v19.5c51.79,9.95,63.37,41.23,63.37,63.17C223,592.59,192.34,617.57,159.64,640.32Zm150.1-21.73-17.67,23.15c-9.75-2.84-50.38-14.62-58.91-17.06V561.31c7.52-3.66,41.44-19.7,52.81-25.19,6.7,9.35,21.94,31.08,28.44,40.42l-54.84,25v10.36C267.69,612.9,301.81,617.57,309.74,618.59Zm91.6-80.43-8.74,20.71L362.34,555v56.88c8.13,2,31.28,7.51,36.76,8.93L376,641.74c-8.74-3.45-45.7-18.28-58.09-23.15l18.08-8.94V551.77l-19.5-2.44,19.5-11.17V510.53l52.8-25.18c4.47,5.48,17.27,21.73,20.11,25.39l-26.4,12.59c-6.5-8.12-17.06-21.33-20.11-25.19v40Zm88.15,80.43-17.68,23.15c-9.74-2.84-50.37-14.62-58.9-17.06V561.31c7.52-3.66,41.44-19.7,52.81-25.19,6.71,9.35,21.94,31.08,28.44,40.42l-54.84,25v10.36C447.44,612.9,481.56,617.57,489.49,618.59Zm97.69,23.15c-1.83-1.21-15-10.15-18.69-12.59V565.37c-2.63-1.82-9.13-6.29-11-7.71-1.22-.82-8.33-5.69-12.8-8.74v67.64c4.06,2.84,15.44,10.76,18.08,12.59l-28,12.59c-5.28-3.45-27.22-18.07-34.53-23.15l18.08-8.94V561.31c-4.27-3-16.66-11.58-18.08-12.59l28.43-12.59c1.83,1.42,13,10.15,16.05,12.59,5.69-2.64,23.56-10.56,28.44-12.59,6.7,4.26,19.5,13,21.73,14.42v66c2.64,1.83,14.62,10.15,18.08,12.59Zm102.17,0c-2-1.62-13.61-10.76-15.85-12.59-11.17,5.28-22.14,10.56-26.6,12.59-3.26-2.43-16.86-12.18-23.77-17.06V561.31c11-5.28,39.81-19.09,50.17-24V510.53c-4.27-2.84-14.83-10.35-18.08-12.59l28.44-12.59c1.83,1.42,13,10.15,16,12.59V616.56c3.86,2.64,14.63,10.15,18.08,12.59Zm115.16-23.15-17.67,23.15c-9.75-2.84-50.37-14.62-58.9-17.06V561.31c7.51-3.66,41.43-19.7,52.8-25.19,6.71,9.35,21.94,31.08,28.44,40.42l-54.84,25v10.36C762.47,612.9,796.59,617.57,804.51,618.59Zm68.23,2.77-14.86,20.53c-14.53-5.81-34.21-13.68-42.61-17L833.35,616V561.31c-4.27-3-16.66-11.58-18.08-12.59l26.41-12.59c2.23,1.42,14.62,10.15,18.07,12.59,5.08-2.44,23-11,26.41-12.59,3.45,3.65,16.86,18.07,21.73,23.15-13,6.5-26.2,13.2-26.2,13.2-1.83-2-8.53-9.34-10.36-11.17-1-1-7.72-8.12-11.58-12.39V618.2C862.66,618.93,867.49,620.1,872.74,621.36Z"/></g></svg>