<?xml version="1.0" encoding="UTF-8"?>
<svg width="1148px" height="256px" viewBox="0 0 1148 256" version="1.1" xmlns="http://www.w3.org/2000/svg" xmlns:xlink="http://www.w3.org/1999/xlink">
    <title>logotype</title>
    <g id="Page-1" stroke="none" stroke-width="1" fill="none" fill-rule="evenodd">
        <g id="logotype" fill="#FFFF00" fill-rule="nonzero">
            <path d="M276,158.94 C264.94,143.35 246.8,118.41 242.26,112.17 L242.26,174.53 L276,158.94 Z M242.26,185.59 L242.26,200 C253.6,201.42 301.26,207.94 312.26,209.36 L287.6,241.67 C273.99,237.67 217.3,221.26 205.39,217.86 L205.39,129.46 C215.88,124.36 263.22,101.96 279.09,94.31 C288.45,107.31 309.71,137.68 318.78,150.72 L242.26,185.59 Z" id="Shape"></path>
            <path d="M102.77,206 C110.676691,208.951586 118.19519,212.853549 125.16,217.62 C147.84,198.06 157.16,181.62 157.16,144.77 C157.16,113.31 150.07,80.42 102.73,62.28 L102.77,206 Z M46.93,193 C60.82,195 78.68,198.1 95.4,203.49 L95.4,59.73 C84.1368732,56.0440954 72.5628667,53.3865589 60.82,51.79 C35,90.34 109.57,163.19 46.93,193 M57.42,51.23 C41,49 22,47.83 0.16,47.83 L51.46,23.45 C66.2575238,23.3753659 81.0395559,24.4183316 95.68,26.57 L95.68,3.89 L102.77,0.77 L102.77,28 C175.05,41.89 191.21,85.54 191.21,116.16 C191.21,173.16 148.41,208 102.77,239.75 L102.77,252.75 L95.4,255.87 L95.4,238.87 C75.27,226.96 38.71,218.74 3.84,213.36 L4.13,213.36 C86.33,174.24 -20.54,105.07 43.81,60.57 L57.42,51.23 Z" id="Shape"></path>
            <path d="M348.81,97.15 L348.81,58.6 L422.51,23.45 C428.75,31.1 446.61,53.78 450.57,58.88 L413.73,76.45 C404.65,65.12 389.91,46.69 385.66,41.31 L385.66,97.15 L440.09,97.15 L427.9,126.06 L385.66,120.67 L385.66,200 C397,202.84 429.31,210.49 436.97,212.47 L404.65,241.67 C392.46,236.85 340.87,216.16 323.58,209.36 L348.81,196.89 L348.81,116.14 L321.6,112.74 L348.81,97.15 Z" id="Path"></path>
            <path d="M526.82,158.94 C515.77,143.35 497.62,118.41 493.09,112.17 L493.09,174.53 L526.82,158.94 Z M493.09,185.59 L493.09,200 C504.43,201.42 552.09,207.94 563.09,209.36 L538.42,241.67 C524.82,237.67 468.13,221.26 456.22,217.86 L456.22,129.46 C466.71,124.36 514.05,101.96 529.92,94.31 C539.28,107.31 560.53,137.68 569.61,150.72 L493.09,185.59 Z" id="Shape"></path>
            <path d="M673.37,224.14 L673.37,135.14 C669.69,132.59 660.61,126.35 658.06,124.37 C656.36,123.24 646.44,116.43 640.2,112.18 L640.2,206.57 C645.87,210.57 661.75,221.57 665.43,224.15 L626.32,241.72 C618.95,236.9 588.32,216.49 578.13,209.41 L603.35,196.93 L603.35,129.46 C597.35,125.21 580.11,113.3 578.13,111.89 L617.81,94.31 C620.36,96.31 635.95,108.49 640.2,111.89 C648.14,108.2 673.08,97.15 679.89,94.31 C689.24,100.26 707.1,112.45 710.22,114.44 L710.22,206.56 C713.9,209.11 730.63,220.74 735.45,224.14 L699.45,241.71 C696.9,240.01 678.45,227.54 673.37,224.14" id="Path"></path>
            <path d="M819.63,223.57 L819.63,135.13 C810.85,128.89 791.29,115.29 786.47,112.13 L786.47,199.44 C794.97,205.67 814.81,219.85 819.63,223.53 M819.63,95.97 L819.63,58.6 C813.63,54.6 798.94,44.14 794.41,41.02 L834.09,23.45 C836.64,25.45 852.23,37.62 856.48,41.02 L856.48,206.56 C861.87,210.25 876.89,220.74 881.71,224.14 L842,241.71 C839.16,239.44 823,226.71 819.89,224.14 C804.3,231.51 788.99,238.88 782.75,241.71 C778.22,238.31 759.23,224.71 749.59,217.9 L749.59,129.46 C764.89,122.09 805.15,102.82 819.59,96.01" id="Shape"></path>
            <path d="M966.47,158.94 C955.41,143.35 937.27,118.41 932.73,112.17 L932.73,174.53 L966.47,158.94 Z M932.73,185.59 L932.73,200 C944.07,201.42 991.73,207.94 1002.73,209.36 L978.06,241.67 C964.46,237.67 907.77,221.26 895.86,217.86 L895.86,129.46 C906.35,124.36 953.69,101.96 969.56,94.31 C978.92,107.31 1000.18,137.68 1009.25,150.72 L932.73,185.59 Z" id="Shape"></path>
            <path d="M1017.77,218.21 C1029.49,222.82 1056.95,233.81 1077.23,241.91 L1098,213.27 C1090.67,211.5 1083.93,209.87 1079.88,208.86 L1079.88,112.17 C1085.26,118.17 1094.62,128.04 1096.03,129.46 C1098.58,132.01 1107.94,142.22 1110.49,145.05 C1110.49,145.05 1128.91,135.7 1147.06,126.63 C1140.25,119.54 1121.54,99.42 1116.72,94.31 C1111.91,96.58 1086.96,108.49 1079.88,111.89 C1075.06,108.49 1057.77,96.3 1054.65,94.31 L1017.8,111.89 C1019.8,113.3 1037.07,125.21 1043.03,129.46 L1043.03,205.74 L1017.77,218.21 Z" id="Path"></path>
        </g>
    </g>
</svg>